<?xml version="1.0" encoding="utf-8"?>
<!-- Generator: Adobe Illustrator 16.0.0, SVG Export Plug-In . SVG Version: 6.00 Build 0)  -->
<!DOCTYPE svg PUBLIC "-//W3C//DTD SVG 1.1//EN" "http://www.w3.org/Graphics/SVG/1.1/DTD/svg11.dtd">
<svg version="1.1" id="cherries" xmlns="http://www.w3.org/2000/svg" xmlns:xlink="http://www.w3.org/1999/xlink" x="0px" y="0px"
	 width="200px" height="206px" viewBox="0 0 200 206" enable-background="new 0 0 200 206" xml:space="preserve">
<g id="cherries_group">
	<path fill="#F04D4E" d="M177.674,135.285c-4.095-4.548-10.916-4.548-14.554-4.548c-7.274,0-10.458,3.185-10.458,3.185
		c-1.821,1.816-4.548,1.816-6.369,0c0,0-3.637-3.185-10.459-3.185c-4.09,0-10.458,0-14.553,4.548
		c-6.332,7.484-7.728,12.071-7.728,22.738c0,20.012,16.37,36.381,36.381,36.381c20.008,0,36.382-16.369,36.382-36.381
		C185.406,148.928,182.675,141.196,177.674,135.285"/>
	<path fill="#A00000" d="M178.674,135.285c-1.363-1.821-3.184-2.728-5-3.185c2.727,5.005,4.09,10.459,4.09,16.827
		c0,20.012-16.37,36.382-36.382,36.382c-7.731,0-15.006-2.274-20.917-6.369c6.363,9.553,17.28,15.464,30.013,15.464
		c20.012,0,36.382-16.369,36.382-36.381C186.406,148.928,183.675,141.196,178.674,135.285"/>
	<path fill="#F04D4E" d="M77.625,135.285c-4.092-4.548-9.125-4.548-14.553-4.548c-7.275,0-10.822,3.183-10.822,3.183
		c-1.819,1.816-4.185,1.818-6.003,0.002c0,0-3.64-3.185-10.461-3.185c-4.092,0-10.818-0.535-14.911,4.013
		c-5.913,5.911-8.281,14.178-8.281,23.273c0,20.012,16.37,36.381,36.381,36.381c20.009,0,36.381-16.369,36.381-36.381
		C85.357,148.928,82.628,141.196,77.625,135.285"/>
	<path fill="#014463" d="M185.04,129.37c-6.37-7.73-16.37-7.73-21.37-7.73c-4.1,0-7.28,0.91-9.55,1.82c0-2.27-0.46-5-0.46-8.64
		c-2.271-29.1-12.28-57.3-29.101-80.95l-5.46-8.18l7.73-15.92c0.91-2.28,0-5-1.82-5.91c-2.27-0.91-5,0-5.91,1.82l-8.229,16.46
		c-20.02-2.2-40.18,4.68-54.53,19.46c-15.46,15.01-22.28,36.38-19.1,57.3c0,1.82,1.82,3.19,3.64,3.64
		c3.18,0.46,6.82,0.91,10.01,0.91c0.44,0,0.87,0,1.31-0.02c-2,6.08-3.65,12.31-4.95,18.66l-0.46,1.37
		c-2.73-0.91-6.37-1.82-10.46-1.82c-4.54,0-14.55,0-21.37,7.73C8.14,136.65,4.5,146.65,4.5,158.02c0,25.021,20.46,45.48,45.48,45.48
		c25.01,0,45.47-20.46,45.47-45.48c0-11.369-3.64-21.369-10.46-28.649c-6.82-7.73-16.82-7.73-21.37-7.73
		c-2.73,0-5.46,0.45-7.28,0.91c1.47-6.87,3.38-13.58,5.71-20.11c13.38-2.39,26.15-9.02,36.13-19
		c11.75-11.75,18.76-27.39,19.72-43.67c15.55,22.53,24.869,48.58,26.67,75.5c0.449,3.19,0.449,5.461,0.449,7.28
		c-2.27-0.46-5.449-0.91-8.64-0.91c-4.55,0-14.55,0-21.37,7.73c-6.83,7.28-10.46,17.28-10.46,28.649
		c0,25.021,20.46,45.48,45.47,45.48c25.021,0,45.48-20.46,45.48-45.48C195.5,146.65,191.86,136.65,185.04,129.37z M63.62,130.74
		c3.64,0,10.46,0,14.55,4.55c5,5.91,7.73,13.64,7.73,22.729c0,20.021-16.37,36.381-36.38,36.381c-20.01,0-36.38-16.36-36.38-36.381
		c0-9.09,2.73-16.819,7.73-22.729c4.09-4.55,10.92-4.55,14.55-4.55c7.28,0,10.46,3.18,10.46,3.18c1.82,1.82,4.55,1.82,6.37,0
		C53.16,133.92,56.8,130.74,63.62,130.74z M55.67,93.86c-3.24,0.29-6.52,0.3-9.79,0.04c-1.82-16.83,4.55-33.65,16.83-46.39
		c10.65-10.26,24.16-16.08,38.15-16.9C80.8,47.8,65.4,69.45,55.67,93.86z M92.27,77.07c-7.54,7.27-16.51,12.3-26.07,14.92
		c9.67-22.02,24.29-41.51,43.189-56.84C109.75,50.52,103.47,65.88,92.27,77.07z M150.02,194.4c-20.01,0-36.38-16.36-36.38-36.381
		c0-9.09,2.73-16.819,7.74-22.729c4.08-4.55,10.91-4.55,14.55-4.55c6.82,0,10.46,3.18,10.46,3.18c1.811,1.82,4.54,1.82,6.36,0
		c0,0,3.64-3.18,10.46-3.18c3.64,0,10.46,0,14.55,4.55c5.01,5.91,7.74,13.64,7.74,22.729C186.41,178.04,170.04,194.4,150.02,194.4z"
		/>
	<path fill="#90C962" d="M92.315,77.073c12.28-12.279,18.644-29.56,16.828-46.387c-16.828-1.363-33.655,4.548-46.387,16.828
		C50.476,59.793,44.109,77.073,45.928,93.9C63.21,95.719,80.036,89.353,92.315,77.073"/>
	<path fill="#00B900" d="M109.5,30.625l-1.875-0.125c-2.274,14.098-8.991,27.93-19.449,38.844
		C76.351,81.168,61.345,87.989,45.428,89.808v4.548c16.825,1.366,34.152-4.548,46.885-16.825
		C104.59,64.796,111.321,47.452,109.5,30.625"/>
	<path fill="#E8AFAF" d="M136.382,135.285c-2.274,0-8.643,0-12.733,6.821c-1.363,2.273-0.457,5.001,1.363,6.368
		c0.453,0.453,1.364,0.453,2.274,0.453c1.363,0,3.185-0.91,4.095-2.273c0.906-2.274,2.727-2.274,5.001-2.274
		c2.727,0,4.547-1.82,4.547-4.547C140.929,137.105,138.655,135.285,136.382,135.285"/>
	<path fill="#A00000" d="M78.125,135.285c-1.363-1.821-3.184-2.728-5.003-3.185c2.729,5.005,4.093,10.459,4.093,16.827
		c0,20.012-16.37,36.382-36.382,36.382c-7.729,0-15.006-2.274-20.917-6.369c6.367,9.096,17.28,15.464,29.56,15.464
		c20.009,0,36.381-16.369,36.381-36.381C85.857,148.928,83.128,141.196,78.125,135.285"/>
	<path fill="#E8AFAF" d="M36.333,135.285c-2.274,0-8.64,0-12.732,6.821c-1.366,2.273-0.911,5.001,1.363,6.368
		c0.455,0.453,1.363,0.453,2.274,0.453c1.363,0,3.184-0.91,4.092-2.273c0.911-2.274,2.729-2.274,5.003-2.274
		c2.729,0,4.548-1.82,4.548-4.547C40.88,137.105,38.606,135.285,36.333,135.285"/>
</g>
</svg>
